# xmcd
#
# Track frame offsets:
#	150
#	9834
#	20553
#	33927
#	48067
#	58101
#	71658
#	81489
#	92556
#	106274
#	118387
#	127475
#	137987
#	148588
#	159969
#	171324
#	181337
#	191753
#	201277
#	216001
#	227505
#	240867
#	252053
#	264097
#	276419
#	289882
#	300480
#	311092
#
# Disc length: 4445 seconds
#
# Revision: 0
# Processed by: cddbd v1.5.2PL0 Copyright (c) Steve Scherf et al.
# Submitted via: audiograbber 1.83.01
#
DISCID=94115b1c
DTITLE=Pat Boone - Pat Boone , De Komplete Hitalbum
DYEAR=1900
DGENRE=Pop-Folk
TTITLE0=Love Letters in The Sand
TTITLE1=I Love You More And More Everyday
TTITLE2=I' ll Be Home
TTITLE3=After You
TTITLE4=Don't Forbid Me
TTITLE5=Wanted
TTITLE6=Mr .Blue
TTITLE7=April Love
TTITLE8=Friendly Persuasion
TTITLE9=She Fgihts That Lovin' Feelin '
TTITLE10=A Wonderful Time Up There
TTITLE11=Good Things
TTITLE12=If You're Gonna Make A Fool  Of Sombody
TTITLE13=Speedy Gonzales
TTITLE14=I Almost Lost My Mind
TTITLE15=Remember You're Mine
TTITLE16=Where These's A Heartache
TTITLE17=Bernadine
TTITLE18=Golden Rocket
TTITLE19=Poetry In Motion
TTITLE20=Jambalaya
TTITLE21=Moody River
TTITLE22=You Lay So Easy On My Mind
TTITLE23=Tying The Pieces Together
TTITLE24=I Believe In Music
TTITLE25=Ain't That a Shame
TTITLE26=Tutti Frutti
TTITLE27=Night And Day
EXTD=
EXTT0=
EXTT1=
EXTT2=
EXTT3=
EXTT4=
EXTT5=
EXTT6=
EXTT7=
EXTT8=
EXTT9=
EXTT10=
EXTT11=
EXTT12=
EXTT13=
EXTT14=
EXTT15=
EXTT16=
EXTT17=
EXTT18=
EXTT19=
EXTT20=
EXTT21=
EXTT22=
EXTT23=
EXTT24=
EXTT25=
EXTT26=
EXTT27=
PLAYORDER=
